<svg xmlns="http://www.w3.org/2000/svg" viewBox="0 0 64.67 64.67"><defs><style>.cls-1{fill:#fff;}</style></defs><title>qr-scan</title><g id="Layer_2" data-name="Layer 2"><g id="Layer_1-2" data-name="Layer 1"><path class="cls-1" d="M17.64,0H5.88A5.88,5.88,0,0,0,0,5.88V17.64a5.88,5.88,0,0,0,5.88,5.88H17.64a5.89,5.89,0,0,0,5.88-5.88V5.88A5.88,5.88,0,0,0,17.64,0Zm0,17.64H5.88V5.88H17.64ZM14.7,14.7H8.82V8.82H14.7Z"/><path class="cls-1" d="M17.64,41.15H5.88A5.88,5.88,0,0,0,0,47V58.79a5.88,5.88,0,0,0,5.88,5.88H17.64a5.88,5.88,0,0,0,5.88-5.88V47A5.88,5.88,0,0,0,17.64,41.15Zm0,17.64H5.88V47H17.64ZM14.7,55.85H8.82V50H14.7Z"/><path class="cls-1" d="M58.79,0H47a5.88,5.88,0,0,0-5.88,5.88V17.64A5.88,5.88,0,0,0,47,23.52H58.79a5.88,5.88,0,0,0,5.88-5.88V5.88A5.88,5.88,0,0,0,58.79,0Zm0,17.64H47V5.88H58.79ZM55.85,14.7H50V8.82h5.88Z"/><rect class="cls-1" x="29.39" y="5.88" width="5.88" height="5.88"/><rect class="cls-1" x="29.39" y="17.64" width="5.88" height="5.88"/><rect class="cls-1" x="29.39" y="29.39" width="5.88" height="5.88"/><rect class="cls-1" x="17.64" y="29.39" width="5.88" height="5.88"/><rect class="cls-1" x="5.88" y="29.39" width="5.88" height="5.88"/><rect class="cls-1" x="41.15" y="29.39" width="5.88" height="5.88"/><rect class="cls-1" x="52.91" y="29.39" width="5.88" height="5.88"/><rect class="cls-1" x="35.27" y="35.27" width="5.88" height="5.88"/><rect class="cls-1" x="47.03" y="35.27" width="5.88" height="5.88"/><rect class="cls-1" x="41.15" y="41.15" width="5.88" height="5.88"/><rect class="cls-1" x="29.39" y="41.15" width="5.88" height="5.88"/><rect class="cls-1" x="35.27" y="47.03" width="5.88" height="5.88"/><rect class="cls-1" x="41.15" y="52.91" width="5.88" height="5.88"/><rect class="cls-1" x="35.27" y="58.79" width="5.88" height="5.88"/><rect class="cls-1" x="58.79" y="35.27" width="5.88" height="5.88"/><rect class="cls-1" x="58.79" y="47.03" width="5.88" height="5.88"/><rect class="cls-1" x="47.03" y="47.03" width="5.88" height="5.88"/><rect class="cls-1" x="47.03" y="58.79" width="5.88" height="5.88"/><rect class="cls-1" x="52.91" y="52.91" width="5.88" height="5.88"/><rect class="cls-1" x="52.91" y="41.15" width="5.88" height="5.88"/><rect class="cls-1" x="29.39" y="52.91" width="5.88" height="5.88"/></g></g></svg>